<svg width="40" height="33" viewBox="0 0 40 33" fill="none" xmlns="http://www.w3.org/2000/svg">
<path d="M32.7832 4.67622C32.773 4.65617 32.756 4.64045 32.7354 4.63189C30.3527 3.52411 27.8383 2.73417 25.2551 2.28184C25.2316 2.27742 25.2073 2.28061 25.1858 2.29096C25.1642 2.30131 25.1464 2.31828 25.1349 2.33948C24.7925 2.96919 24.4817 3.61602 24.2036 4.27748C21.419 3.84914 18.5866 3.84914 15.802 4.27748C15.5221 3.61434 15.2063 2.96735 14.8561 2.33948C14.844 2.31875 14.8261 2.30216 14.8047 2.29188C14.7832 2.2816 14.7592 2.2781 14.7358 2.28184C12.1523 2.73322 9.63769 3.52322 7.2553 4.63195C7.23491 4.64072 7.2177 4.65568 7.20605 4.67477C2.44174 11.8845 1.13662 18.917 1.77687 25.8624C1.77867 25.8794 1.78383 25.8959 1.79204 25.9108C1.80026 25.9258 1.81135 25.9389 1.82468 25.9494C4.59889 28.0309 7.70189 29.6197 11.0012 30.6481C11.0245 30.6551 11.0493 30.6548 11.0723 30.6472C11.0954 30.6395 11.1156 30.6249 11.1302 30.6053C11.8388 29.6282 12.4667 28.5936 13.0075 27.5119C13.0149 27.4971 13.0192 27.4808 13.0199 27.4642C13.0207 27.4476 13.018 27.431 13.012 27.4155C13.006 27.4 12.9968 27.386 12.985 27.3744C12.9733 27.3627 12.9592 27.3538 12.9438 27.348C11.9537 26.9641 10.9951 26.5013 10.0771 25.964C10.0604 25.9541 10.0464 25.9401 10.0363 25.9234C10.0262 25.9067 10.0203 25.8877 10.0192 25.8681C10.018 25.8486 10.0216 25.829 10.0297 25.8112C10.0378 25.7934 10.0501 25.7779 10.0655 25.766C10.2587 25.6198 10.4485 25.4691 10.6348 25.314C10.6511 25.3004 10.6709 25.2916 10.6919 25.2888C10.7129 25.2859 10.7342 25.289 10.7536 25.2978C16.7679 28.0792 23.2792 28.0792 29.2223 25.2978C29.2417 25.2885 29.2633 25.2849 29.2845 25.2875C29.3058 25.2901 29.3259 25.2988 29.3426 25.3126C29.5291 25.4685 29.7194 25.6197 29.9133 25.766C29.9288 25.7778 29.9412 25.7932 29.9494 25.8109C29.9576 25.8287 29.9614 25.8482 29.9604 25.8678C29.9594 25.8873 29.9536 25.9063 29.9437 25.9231C29.9337 25.9399 29.9198 25.954 29.9032 25.964C28.9872 26.5059 28.0278 26.9684 27.0351 27.3466C27.0196 27.3525 27.0056 27.3617 26.994 27.3735C26.9823 27.3853 26.9732 27.3995 26.9673 27.4151C26.9614 27.4307 26.9588 27.4474 26.9597 27.4641C26.9606 27.4808 26.965 27.4971 26.9726 27.5119C27.5224 28.5876 28.1494 29.6209 28.8484 30.6036C28.8626 30.6237 28.8827 30.6388 28.9058 30.6468C28.929 30.6548 28.954 30.6551 28.9774 30.6479C32.2826 29.623 35.3911 28.0341 38.1687 25.9494C38.1823 25.9394 38.1935 25.9266 38.2018 25.9119C38.21 25.8971 38.2151 25.8807 38.2166 25.8638C38.9831 17.8342 36.9333 10.8594 32.7832 4.67622ZM13.9057 21.6333C12.0949 21.6333 10.6029 19.9495 10.6029 17.8815C10.6029 15.8136 12.066 14.1296 13.9057 14.1296C15.7597 14.1296 17.2373 15.8282 17.2084 17.8814C17.2084 19.9495 15.7452 21.6333 13.9057 21.6333ZM26.1169 21.6333C24.3062 21.6333 22.8142 19.9495 22.8142 17.8815C22.8142 15.8136 24.2773 14.1296 26.1169 14.1296C27.9711 14.1296 29.4486 15.8282 29.4197 17.8814C29.4197 19.9495 27.9711 21.6333 26.1169 21.6333Z" fill="#F5F5F5"/>
</svg>
