<svg width="28" height="33" viewBox="0 0 28 33" fill="none" xmlns="http://www.w3.org/2000/svg">
<path d="M25 2.27991H3C1.34375 2.27991 0 3.64157 0 5.31991V27.6132C0 29.2916 1.34375 30.6532 3 30.6532H25C26.6562 30.6532 28 29.2916 28 27.6132V5.31991C28 3.64157 26.6562 2.27991 25 2.27991ZM17.3312 26.5809C16.8062 26.6759 16.6125 26.3466 16.6125 26.0742C16.6125 25.7322 16.625 23.9842 16.625 22.5719C16.625 21.5839 16.3 20.9569 15.9187 20.6276C18.2313 20.3679 20.6688 20.0449 20.6688 15.9979C20.6688 14.8452 20.2625 14.2689 19.6 13.5279C19.7063 13.2556 20.0625 12.1346 19.4937 10.6779C18.625 10.4056 16.6375 11.8116 16.6375 11.8116C15.8125 11.5772 14.9188 11.4569 14.0375 11.4569C13.1562 11.4569 12.2625 11.5772 11.4375 11.8116C11.4375 11.8116 9.45 10.4056 8.58125 10.6779C8.0125 12.1282 8.3625 13.2492 8.475 13.5279C7.8125 14.2689 7.5 14.8452 7.5 15.9979C7.5 20.0259 9.83125 20.3679 12.1438 20.6276C11.8438 20.8999 11.575 21.3686 11.4812 22.0399C10.8875 22.3122 9.36875 22.7809 8.4625 21.1596C7.89375 20.1589 6.86875 20.0766 6.86875 20.0766C5.85625 20.0639 6.8 20.7226 6.8 20.7226C7.475 21.0392 7.95 22.2552 7.95 22.2552C8.55625 24.1362 11.4563 23.5029 11.4563 23.5029C11.4563 24.3832 11.4688 25.8146 11.4688 26.0742C11.4688 26.3466 11.2812 26.6759 10.75 26.5809C6.625 25.1812 3.7375 21.2039 3.7375 16.5552C3.7375 10.7412 8.125 6.32691 13.8625 6.32691C19.6 6.32691 24.25 10.7412 24.25 16.5552C24.2563 21.2039 21.4562 25.1876 17.3312 26.5809ZM11.2 22.7112C11.0813 22.7366 10.9688 22.6859 10.9563 22.6036C10.9438 22.5086 11.025 22.4262 11.1438 22.4009C11.2625 22.3882 11.375 22.4389 11.3875 22.5212C11.4062 22.6036 11.325 22.6859 11.2 22.7112ZM10.6062 22.6542C10.6062 22.7366 10.5125 22.8062 10.3875 22.8062C10.25 22.8189 10.1562 22.7492 10.1562 22.6542C10.1562 22.5719 10.25 22.5022 10.375 22.5022C10.4937 22.4896 10.6062 22.5592 10.6062 22.6542ZM9.75 22.5846C9.725 22.6669 9.6 22.7049 9.49375 22.6669C9.375 22.6416 9.29375 22.5466 9.31875 22.4642C9.34375 22.3819 9.46875 22.3439 9.575 22.3692C9.7 22.4072 9.78125 22.5022 9.75 22.5846ZM8.98125 22.2426C8.925 22.3122 8.80625 22.2996 8.7125 22.2046C8.61875 22.1222 8.59375 22.0019 8.65625 21.9449C8.7125 21.8752 8.83125 21.8879 8.925 21.9829C9.00625 22.0652 9.0375 22.1919 8.98125 22.2426ZM8.4125 21.6662C8.35625 21.7042 8.25 21.6662 8.18125 21.5712C8.1125 21.4762 8.1125 21.3686 8.18125 21.3242C8.25 21.2672 8.35625 21.3116 8.4125 21.4066C8.48125 21.5016 8.48125 21.6156 8.4125 21.6662ZM8.00625 21.0519C7.95 21.1089 7.85625 21.0772 7.7875 21.0139C7.71875 20.9316 7.70625 20.8366 7.7625 20.7922C7.81875 20.7352 7.9125 20.7669 7.98125 20.8302C8.05 20.9126 8.0625 21.0076 8.00625 21.0519ZM7.5875 20.5832C7.5625 20.6402 7.48125 20.6529 7.4125 20.6086C7.33125 20.5706 7.29375 20.5009 7.31875 20.4439C7.34375 20.4059 7.4125 20.3869 7.49375 20.4186C7.575 20.4629 7.6125 20.5326 7.5875 20.5832Z" fill="#F5F5F5"/>
</svg>
